<svg width="294" height="294" viewBox="0 0 294 294" fill="none" xmlns="http://www.w3.org/2000/svg">
    <path
        d="M288.752 46.2419L155.017 285.678C152.256 290.621 145.162 290.65 142.359 285.731L5.97244 46.2649C2.91916 40.904 7.49769 34.4105 13.5652 35.4963L147.443 59.4557C148.297 59.6085 149.172 59.6071 150.026 59.4513L281.104 35.5307C287.152 34.4271 291.752 40.8704 288.752 46.2419Z"
        fill="url(#paint0_linear_1378_6)" />
    <path
        d="M211.217 4.07026L112.249 23.4865C110.623 23.8056 109.418 25.1858 109.32 26.8422L103.232 129.788C103.089 132.213 105.313 134.095 107.677 133.549L135.231 127.182C137.809 126.587 140.138 128.861 139.608 131.456L131.422 171.592C130.871 174.294 133.404 176.604 136.039 175.802L153.058 170.625C155.696 169.823 158.231 172.14 157.673 174.843L144.664 237.888C143.85 241.832 149.089 243.982 151.273 240.601L152.733 238.343L233.377 77.2047C234.728 74.5066 232.399 71.4302 229.44 72.002L201.077 77.4826C198.412 77.9971 196.144 75.512 196.896 72.9011L215.408 8.64945C216.161 6.0342 213.885 3.54687 211.217 4.07026Z"
        fill="url(#paint1_linear_1378_6)" />
    <defs>
        <linearGradient id="paint0_linear_1378_6" x1="2.64246" y1="26.9392" x2="169.352" y2="253.066"
            gradientUnits="userSpaceOnUse">
            <stop stop-color="#41D1FF" />
            <stop offset="1" stop-color="#BD34FE" />
        </linearGradient>
        <linearGradient id="paint1_linear_1378_6" x1="139.76" y1="9.34173" x2="169.941" y2="216.129"
            gradientUnits="userSpaceOnUse">
            <stop stop-color="#FFEA83" />
            <stop offset="0.0833333" stop-color="#FFDD35" />
            <stop offset="1" stop-color="#FFA800" />
        </linearGradient>
    </defs>
</svg>